General
Unique ID                        : 251598998703925395223926806743053852383 (0xBD48345DECA96CAA843CAFC12D255EDF)
Format                           : Matroska
Format version                   : Version 4 / Version 2
File size                        : 1.70 GiB
Duration                         : 1h 24mn
Overall bit rate mode            : Variable
Overall bit rate                 : 2 896 Kbps
Encoded date                     : UTC 2013-04-05 14:19:17
Writing application              : mkvmerge v6.1.0 ('Old Devil') built on Mar  2 2013 14:32:37
Writing library                  : libebml v1.3.0 + libmatroska v1.4.0

Video
ID                               : 1
Format                           : AVC
Format/Info                      : Advanced Video Codec
Format profile                   : High@L4.1
Format settings, CABAC           : Yes
Format settings, ReFrames        : 7 frames
Codec ID                         : V_MPEG4/ISO/AVC
Duration                         : 1h 24mn
Bit rate mode                    : Variable
Bit rate                         : 2 454 Kbps
Maximum bit rate                 : 9.2 Mbps
Width                            : 1 280 pixels
Height                           : 692 pixels
Display aspect ratio             : 1.850
Frame rate                       : 23.976 fps
Color space                      : YUV
Chroma subsampling               : 4:2:0
Bit depth                        : 8 bits
Scan type                        : Progressive
Bits/(Pixel*Frame)               : 0.116
Stream size                      : 1.44 GiB (85%)
Writing library                  : x264 core 129 r2245 bc13772
Default                          : Yes
Forced                           : No

Audio
ID                               : 2
Format                           : AC-3
Format/Info                      : Audio Coding 3
Mode extension                   : CM (complete main)
Codec ID                         : A_AC3
Duration                         : 1h 24mn
Bit rate mode                    : Constant
Bit rate                         : 384 Kbps
Channel(s)                       : 2 channels
Channel positions                : Front: L R
Sampling rate                    : 48.0 KHz
Bit depth                        : 16 bits
Compression mode                 : Lossy
Stream size                      : 231 MiB (13%)
Language                         : English
Default                          : Yes
Forced                           : No

Menu
00:00:00.000                     : Maiden Voyage
00:08:08.446                     : A Madman on the Loose
00:16:35.369                     : Oveur, Under
00:20:00.032                     : Liftoff
00:23:04.675                     : Airsick
00:31:23.070                     : Off Course
00:37:41.448                     : Okay, Panic
00:42:21.456                     : McCroskey
00:45:27.850                     : We Need You
00:49:31.927                     : Heating Up
00:55:07.201                     : A Bomb
01:00:07.646                     : Blow the Computer
01:07:04.687                     : Commander Murdock
01:10:46.784                     : Safe Landing
01:18:26.577                     : Thank You for Flying
01:20:01.964                     : End Credits
